<svg width="96" height="96" viewBox="0 0 96 97" fill="none" xmlns="http://www.w3.org/2000/svg">
    <path opacity="0.2" d="M81 30.0696C81 40.0108 66.225 48.0696 48 48.0696C29.775 48.0696 15 40.0108 15 30.0696C15 20.1283 29.775 12.0696 48 12.0696C66.225 12.0696 81 20.1283 81 30.0696Z" fill="#009FE3"/>
    <path d="M48 9.06958C27.8137 9.06958 12 18.2946 12 30.0696V66.0696C12 77.8446 27.8137 87.0696 48 87.0696C68.1862 87.0696 84 77.8446 84 66.0696V30.0696C84 18.2946 68.1862 9.06958 48 9.06958ZM78 48.0696C78 51.6771 75.045 55.3558 69.8962 58.1646C64.0988 61.3258 56.3213 63.0696 48 63.0696C39.6787 63.0696 31.9013 61.3258 26.1038 58.1646C20.955 55.3558 18 51.6771 18 48.0696V41.8296C24.3975 47.4546 35.3363 51.0696 48 51.0696C60.6637 51.0696 71.6025 47.4396 78 41.8296V48.0696ZM26.1038 19.9746C31.9013 16.8133 39.6787 15.0696 48 15.0696C56.3213 15.0696 64.0988 16.8133 69.8962 19.9746C75.045 22.7833 78 26.4621 78 30.0696C78 33.6771 75.045 37.3558 69.8962 40.1646C64.0988 43.3258 56.3213 45.0696 48 45.0696C39.6787 45.0696 31.9013 43.3258 26.1038 40.1646C20.955 37.3558 18 33.6771 18 30.0696C18 26.4621 20.955 22.7833 26.1038 19.9746ZM69.8962 76.1646C64.0988 79.3258 56.3213 81.0696 48 81.0696C39.6787 81.0696 31.9013 79.3258 26.1038 76.1646C20.955 73.3558 18 69.6771 18 66.0696V59.8296C24.3975 65.4546 35.3363 69.0696 48 69.0696C60.6637 69.0696 71.6025 65.4396 78 59.8296V66.0696C78 69.6771 75.045 73.3558 69.8962 76.1646Z" fill="#009FE3"/>
</svg>